<svg width="151" height="151" viewBox="0 0 151 151" fill="none" xmlns="http://www.w3.org/2000/svg">
<path d="M89.5102 135.885C123.063 127.944 143.826 94.3067 135.885 60.7535C127.944 27.2002 94.3068 6.43735 60.7536 14.3783C27.2003 22.3192 6.43739 55.9569 14.3783 89.5101C22.3192 123.063 55.9569 143.826 89.5102 135.885Z" fill="#B57FB1"/>
<path fill-rule="evenodd" clip-rule="evenodd" d="M84.6679 113.496C80.9449 88.1204 84.2859 50.4204 69.9619 49.5104C78.1829 34.1074 94.7109 41.4114 100.996 58.7184C109.614 82.4484 105.122 108.423 84.6679 113.496Z" fill="#FFF3E0"/>
<path fill-rule="evenodd" clip-rule="evenodd" d="M67.5822 114.035C75.0452 83.7053 56.0742 63.8254 67.4762 45.3174C67.3132 40.9834 53.3272 44.5453 48.4312 59.6413C39.5482 87.0313 50.5222 106.323 67.5822 114.035Z" fill="#FFF3E0"/>
<path fill-rule="evenodd" clip-rule="evenodd" d="M83.8712 104.638C83.6922 104.892 66.0512 105.146 65.8562 105.397C58.6482 110.272 46.2862 112.865 38.8262 117.571C36.8002 118.849 35.1532 120.363 33.8262 122.035C44.0072 131.03 57.1442 136.755 71.5952 137.565H78.6932C93.1572 136.754 106.304 131.019 116.489 122.011C115.136 120.235 113.472 118.705 111.463 117.571C104.442 113.605 91.8162 110.04 83.8712 104.638Z" fill="#FFDECC"/>
<path fill-rule="evenodd" clip-rule="evenodd" d="M84.3975 84.1854V106.852C79.3085 113.54 70.9825 113.309 65.8945 106.852V84.1854C65.8945 71.9454 84.3975 71.9454 84.3975 84.1854Z" fill="#FFDECC"/>
<path fill-rule="evenodd" clip-rule="evenodd" d="M84.3975 95.8144C80.8735 104.65 74.6985 106.732 65.8945 104.914V85.7224L84.3975 95.8144Z" fill="#F7C5AA"/>
<path fill-rule="evenodd" clip-rule="evenodd" d="M75.1449 99.8655C69.1209 99.8655 56.3959 90.3945 52.4619 76.8305C48.4889 63.1345 55.9709 43.4895 75.1449 43.4895C94.3189 43.4895 101.801 63.1335 97.8279 76.8305C93.8939 90.3945 81.1689 99.8655 75.1449 99.8655Z" fill="#FFDECC"/>
<path fill-rule="evenodd" clip-rule="evenodd" d="M67.424 73.2683C68.276 73.2683 68.972 71.5533 68.972 69.4503C68.972 67.3473 68.276 65.6333 67.424 65.6333C66.572 65.6333 65.876 67.3483 65.876 69.4503C65.876 71.5523 66.571 73.2683 67.424 73.2683Z" fill="#666666"/>
<path fill-rule="evenodd" clip-rule="evenodd" d="M82.8673 73.2683C83.7193 73.2683 84.4153 71.5533 84.4153 69.4503C84.4153 67.3473 83.7203 65.6333 82.8673 65.6333C82.0153 65.6333 81.3193 67.3483 81.3193 69.4503C81.3193 71.5523 82.0153 73.2683 82.8673 73.2683Z" fill="#666666"/>
<path fill-rule="evenodd" clip-rule="evenodd" d="M74.0947 81.3654C78.7677 80.2334 78.4277 77.0864 78.2587 74.0774C79.7647 78.2964 80.7747 82.0504 74.0947 81.3654Z" fill="#EDC497"/>
<path fill-rule="evenodd" clip-rule="evenodd" d="M83.0983 83.7153C79.2223 86.6293 71.1713 86.2603 67.1943 83.7153C71.0023 88.2983 80.7273 88.2543 83.0983 83.7153Z" fill="#D1A575"/>
<path fill-rule="evenodd" clip-rule="evenodd" d="M79.125 88.4963C77.186 89.9893 73.157 89.7993 71.167 88.4963C73.072 90.8433 77.938 90.8213 79.125 88.4963Z" fill="#EDC497"/>
<path d="M79.2061 62.2074C81.0311 61.0444 85.6751 60.1724 87.3341 61.3354" stroke="#D6A375" stroke-width="0.9601" stroke-miterlimit="22.9256" stroke-linecap="round" stroke-linejoin="round"/>
<path d="M71.085 62.2074C69.26 61.0444 64.616 60.1724 62.957 61.3354" stroke="#D6A375" stroke-width="0.9601" stroke-miterlimit="22.9256" stroke-linecap="round" stroke-linejoin="round"/>
<path fill-rule="evenodd" clip-rule="evenodd" d="M95.8675 74.8935C95.6405 79.4885 100.625 76.4295 99.6655 68.4775C97.8885 49.8935 86.5615 42.7495 74.6235 42.7495C62.6855 42.7495 52.1575 50.1815 50.5845 68.4855C49.8985 76.4635 53.8135 75.8905 53.8825 72.5645C54.0125 66.2845 56.8075 48.1505 74.6285 48.1505C92.4495 48.1495 96.3075 65.9835 95.8675 74.8935Z" fill="#FFF3E0"/>
<path fill-rule="evenodd" clip-rule="evenodd" d="M96.8475 77.5094C95.5855 65.9814 86.3265 48.9474 69.7615 49.7234C61.2015 53.2964 55.3475 67.9474 55.0185 76.3314C54.7765 82.5074 45.4405 84.9784 45.2865 76.3324C45.1145 66.6494 51.6625 41.7884 64.8225 40.3024C73.6685 34.3084 83.0915 38.4384 88.7105 42.3124C100.08 50.1494 104.08 64.7354 105.135 77.0274C105.772 84.4544 97.0565 79.4184 96.8475 77.5094Z" fill="#FFF3E0"/>
<path fill-rule="evenodd" clip-rule="evenodd" d="M62.693 103.736C37.483 78.0495 62.998 45.4235 70.377 48.0485C61.326 35.4315 25.733 78.1375 62.693 103.736Z" fill="white"/>
<path fill-rule="evenodd" clip-rule="evenodd" d="M90.7495 105.363C111.967 68.2545 84.3265 43.2025 70.7725 47.8925C83.7295 34.3165 122.816 67.8375 90.7495 105.363Z" fill="white"/>
<path fill-rule="evenodd" clip-rule="evenodd" d="M48.6771 68.5654C50.6151 67.7334 53.3521 69.7744 54.7911 73.1254C56.2301 76.4764 55.8261 79.8674 53.8881 80.6994C51.9501 81.5314 49.2131 79.4904 47.7741 76.1394C46.3351 72.7894 46.7391 69.3984 48.6771 68.5654Z" fill="#FFDECC"/>
<path fill-rule="evenodd" clip-rule="evenodd" d="M102.146 68.5654C100.209 67.7334 97.4709 69.7744 96.0319 73.1254C94.5929 76.4764 94.9969 79.8674 96.9349 80.6994C98.8729 81.5314 101.61 79.4904 103.049 76.1394C104.488 72.7894 104.084 69.3984 102.146 68.5654Z" fill="#FFDECC"/>
<path fill-rule="evenodd" clip-rule="evenodd" d="M88.6731 107.45C86.3171 113.895 81.5711 121.728 75.0211 123.443C66.9741 121.406 64.2952 113.624 61.7082 107.744C54.5212 111.232 44.9971 113.679 38.8271 117.572C36.8011 118.85 35.1541 120.364 33.8271 122.036C44.0081 131.031 57.1451 136.756 71.5961 137.566H78.6941C93.1581 136.755 106.305 131.02 116.49 122.012C115.137 120.236 113.473 118.706 111.464 117.572C105.735 114.336 96.2771 111.367 88.6731 107.45Z" fill="#82C8D9"/>
<path fill-rule="evenodd" clip-rule="evenodd" d="M87.5845 129.87C85.3165 125.964 79.4325 122.183 75.0215 123.443C81.9055 120.766 86.2425 110.717 88.6335 107.429C90.3965 108.339 92.2605 109.198 94.1555 110.021L87.5845 129.87Z" fill="#288EA7"/>
<path fill-rule="evenodd" clip-rule="evenodd" d="M62.4579 129.871C64.7259 125.965 70.6099 122.184 75.0199 123.444C68.3669 120.857 64.0939 111.117 61.6559 107.77C59.8719 108.633 57.9469 109.433 55.9639 110.206L62.4579 129.871Z" fill="#288EA7"/>
<path fill-rule="evenodd" clip-rule="evenodd" d="M84.4876 75.6214C85.1346 75.5784 85.7676 75.5254 86.3466 75.4694C89.2236 75.1914 93.0146 73.3414 93.1406 72.6604C93.2676 71.9794 92.9676 68.7664 93.1486 67.8804C93.1206 67.4334 87.7026 67.6384 84.4866 68.0024V68.7604C87.0986 68.4734 91.6256 68.3624 91.6196 69.2874C91.6156 69.7914 91.6376 72.3154 90.8786 73.1034C90.1196 73.8904 87.5706 74.5864 85.2336 74.8984C84.9856 74.9314 84.7356 74.9604 84.4866 74.9824L84.4876 75.6214ZM65.7976 75.5924C68.3756 75.7574 71.1856 75.7754 71.6726 75.2924C72.2796 74.6884 73.4506 72.5024 73.5826 71.9714C73.7616 71.2514 76.5476 71.3824 76.7096 72.0264C76.8426 72.5564 78.0216 74.7394 78.6306 75.3414C79.1176 75.8224 81.9156 75.7954 84.4876 75.6234V74.9844C82.3956 75.1764 80.3496 75.0064 79.3896 74.5544C78.3146 74.0484 77.0136 71.5034 77.4376 70.7364C77.8616 69.9694 81.5466 69.1364 84.0516 68.8134C84.1896 68.7954 84.3356 68.7784 84.4886 68.7614V68.0034C84.0886 68.0484 83.7216 68.0964 83.4046 68.1464C79.6586 68.7294 77.3716 69.3534 75.3776 69.3804C73.1046 69.4114 71.1566 68.7654 66.8746 68.1134C66.5596 68.0654 66.1946 68.0194 65.7976 67.9754V68.7324C65.9486 68.7484 66.0936 68.7654 66.2296 68.7824C68.7356 69.0974 72.4226 69.9184 72.8496 70.6834C73.2766 71.4484 71.9836 73.9984 70.9106 74.5074C69.9496 74.9644 67.8966 75.1404 65.7976 74.9534V75.5924ZM57.1286 67.8804C57.3126 68.7664 57.0236 71.9804 57.1526 72.6604C57.2816 73.3404 61.0776 75.1774 63.9566 75.4464C64.5296 75.5004 65.1566 75.5494 65.7976 75.5914V74.9524C65.5546 74.9304 65.3096 74.9044 65.0666 74.8724C62.7286 74.5674 60.1766 73.8804 59.4156 73.0954C58.6536 72.3104 58.6676 69.7864 58.6616 69.2824C58.6526 68.3564 63.1846 68.4524 65.7966 68.7314V67.9744C62.5816 67.6204 57.1546 67.4324 57.1286 67.8804Z" fill="#E63A45"/>
</svg>
