<svg width="150" height="150" viewBox="0 0 150 150" fill="none" xmlns="http://www.w3.org/2000/svg">
<path d="M135.798 89.2042C143.642 55.6269 122.782 22.0478 89.2043 14.2035C55.6269 6.35908 22.0479 27.2198 14.2035 60.7972C6.35913 94.3746 27.2198 127.954 60.7972 135.798C94.3746 143.642 127.954 122.782 135.798 89.2042Z" fill="#93A9A7"/>
<path fill-rule="evenodd" clip-rule="evenodd" d="M88.1203 76.2658V99.4307C80.8983 106.266 69.0823 106.029 61.8613 99.4307V76.2658C61.8623 63.7578 88.1203 63.7578 88.1203 76.2658Z" fill="#FFDECC"/>
<path fill-rule="evenodd" clip-rule="evenodd" d="M65.5383 94.5278C44.6403 103.69 38.3713 108.575 35.8933 110.767C34.1773 112.286 32.8053 115.667 31.6113 119.9C42.8443 130.756 58.1363 137.437 74.9913 137.437C91.8463 137.437 107.139 130.755 118.371 119.899C117.177 115.666 115.805 112.285 114.089 110.766C111.611 108.574 105.571 103.815 84.6733 94.6528L65.5383 94.5278Z" fill="#FFDECC"/>
<path fill-rule="evenodd" clip-rule="evenodd" d="M63.3643 75.5017C66.5063 77.7437 84.2433 77.6197 87.3853 75.5017C84.6553 87.2947 66.9853 87.6567 63.3643 75.5017Z" fill="#F7C5AA"/>
<path fill-rule="evenodd" clip-rule="evenodd" d="M88.1203 85.2716C83.1193 94.4316 74.3563 98.0486 61.8613 96.1636V76.2666L88.1203 85.2716Z" fill="#F7C5AA"/>
<path fill-rule="evenodd" clip-rule="evenodd" d="M74.992 34.5747C40.936 34.5747 53.183 75.7247 55.408 79.0007C57.861 82.6127 69.49 92.1877 74.992 92.1877C80.494 92.1877 92.1231 82.6137 94.5761 79.0007C96.8011 75.7247 109.048 34.5747 74.992 34.5747Z" fill="#FFDECC"/>
<path fill-rule="evenodd" clip-rule="evenodd" d="M66.8304 65.4467C67.6884 65.4467 68.3874 63.7207 68.3874 61.6057C68.3874 59.4907 67.6874 57.7646 66.8304 57.7646C65.9724 57.7646 65.2734 59.4897 65.2734 61.6057C65.2724 63.7217 65.9724 65.4467 66.8304 65.4467Z" fill="#666666"/>
<path fill-rule="evenodd" clip-rule="evenodd" d="M82.3685 65.4467C83.2265 65.4467 83.9255 63.7207 83.9255 61.6057C83.9255 59.4907 83.2255 57.7646 82.3685 57.7646C81.5105 57.7646 80.8115 59.4897 80.8115 61.6057C80.8115 63.7217 81.5105 65.4467 82.3685 65.4467Z" fill="#666666"/>
<path fill-rule="evenodd" clip-rule="evenodd" d="M72.4062 73.4537C77.4383 72.2347 77.0733 68.8457 76.8913 65.6057C78.5123 70.1487 79.6002 74.1917 72.4062 73.4537Z" fill="#F7C5AA"/>
<path fill-rule="evenodd" clip-rule="evenodd" d="M85.7064 76.1406C78.6034 77.8736 67.8324 77.4676 64.2754 76.1406C68.5664 80.5566 81.6664 80.4866 85.7064 76.1406Z" fill="#D1A575"/>
<path fill-rule="evenodd" clip-rule="evenodd" d="M80.3529 81.0986C77.7399 83.1096 72.3109 82.8546 69.6289 81.0986C72.1959 84.2616 78.7539 84.2306 80.3529 81.0986Z" fill="#F7C5AA"/>
<path d="M79.0518 59.5807C80.8768 58.4177 85.5207 57.5457 87.1797 58.7087" stroke="#E63A45" stroke-width="1.44" stroke-miterlimit="22.9256" stroke-linecap="round" stroke-linejoin="round"/>
<path d="M70.9317 59.5807C69.1067 58.4177 64.4627 57.5457 62.8037 58.7087" stroke="#E63A45" stroke-width="1.44" stroke-miterlimit="22.9256" stroke-linecap="round" stroke-linejoin="round"/>
<path fill-rule="evenodd" clip-rule="evenodd" d="M48.9891 57.1068C50.7761 56.5178 53.0501 58.5468 54.0681 61.6378C55.0861 64.7288 54.4621 67.7108 52.6741 68.2998C50.8871 68.8878 48.6131 66.8598 47.5951 63.7688C46.5771 60.6778 47.2011 57.6958 48.9891 57.1068Z" fill="#FFDECC"/>
<path fill-rule="evenodd" clip-rule="evenodd" d="M101.24 57.1068C99.4525 56.5178 97.1786 58.5468 96.1606 61.6378C95.1426 64.7288 95.7666 67.7108 97.5536 68.2998C99.3406 68.8878 101.615 66.8598 102.633 63.7688C103.651 60.6778 103.027 57.6958 101.24 57.1068Z" fill="#FFDECC"/>
<path fill-rule="evenodd" clip-rule="evenodd" d="M68.8607 37.8648C68.8927 33.8748 69.1607 26.6608 73.7887 22.9678C75.4277 21.6598 79.5717 18.9947 79.1017 24.1857C78.8317 27.1737 78.8137 30.9037 79.9417 34.8977C78.3697 35.2097 77.9737 37.3887 78.0357 38.4357C78.5067 46.4277 68.7967 45.8358 68.8607 37.8648Z" fill="#E63A45"/>
<path fill-rule="evenodd" clip-rule="evenodd" d="M58.6383 97.6397C43.1943 104.822 38.0743 108.837 35.8933 110.767C34.1773 112.286 32.8053 115.667 31.6113 119.9C42.8443 130.756 58.1363 137.437 74.9913 137.437C91.8463 137.437 107.139 130.755 118.371 119.899C117.177 115.666 115.805 112.285 114.089 110.766C111.896 108.826 106.91 104.874 91.3043 97.6387C86.8273 110.923 63.5533 110.098 58.6383 97.6397Z" fill="#288EA7"/>
<path d="M74.9919 118.191C80.0379 118.191 84.6059 120.237 87.9129 123.544C90.8389 126.47 92.7779 130.385 93.1849 134.745C91.6339 135.217 90.0559 135.629 88.4559 135.981C88.3309 132.453 86.8499 129.269 84.5189 126.938C82.0809 124.5 78.7119 122.992 74.9909 122.992C71.2699 122.992 67.9009 124.5 65.4629 126.938C63.1319 129.269 61.6499 132.453 61.5259 135.981C59.9259 135.629 58.3489 135.217 56.7969 134.745C57.2039 130.386 59.1429 126.471 62.0689 123.544C65.3769 120.236 69.9459 118.191 74.9919 118.191Z" fill="#82C8D9"/>
<path fill-rule="evenodd" clip-rule="evenodd" d="M104.431 130.071C109.546 127.33 114.235 123.899 118.372 119.9C117.491 116.777 116.513 114.118 115.372 112.328C109.774 115.637 105.62 122.19 104.431 130.071Z" fill="#1B7991"/>
<path fill-rule="evenodd" clip-rule="evenodd" d="M34.6113 112.329C33.4703 114.119 32.4923 116.778 31.6113 119.901C35.7483 123.9 40.4373 127.331 45.5523 130.072C44.3623 122.191 40.2093 115.638 34.6113 112.329Z" fill="#1B7991"/>
</svg>
