<svg width="151" height="151" viewBox="0 0 151 151" fill="none" xmlns="http://www.w3.org/2000/svg">
<path d="M135.96 89.7536C143.977 56.2176 123.29 22.5324 89.7537 14.5156C56.2177 6.4988 22.5325 27.1862 14.5157 60.7222C6.49889 94.2583 27.1863 127.943 60.7223 135.96C94.2583 143.977 127.944 123.29 135.96 89.7536Z" fill="#288EA7"/>
<path fill-rule="evenodd" clip-rule="evenodd" d="M88.3762 76.5109V99.6759C81.1552 106.511 69.3382 106.275 62.1172 99.6759V76.5109C62.1172 64.0029 88.3762 64.0029 88.3762 76.5109Z" fill="#FFDECC"/>
<path fill-rule="evenodd" clip-rule="evenodd" d="M65.7932 94.7727C44.8952 103.935 38.6262 108.82 36.1482 111.012C34.4322 112.531 33.0612 115.912 31.8662 120.145C43.0992 131.001 58.3912 137.682 75.2462 137.682C92.1012 137.682 107.394 131 118.626 120.144C117.432 115.911 116.06 112.53 114.344 111.011C111.866 108.819 105.826 104.06 84.9282 94.8977L65.7932 94.7727Z" fill="#FFDECC"/>
<path fill-rule="evenodd" clip-rule="evenodd" d="M56.1402 99.1829C42.8262 105.556 38.1942 109.201 36.1482 111.011C34.4322 112.53 33.0612 115.911 31.8662 120.144C43.0992 131 58.3912 137.681 75.2462 137.681C92.1012 137.681 107.394 130.999 118.626 120.143C117.432 115.91 116.06 112.529 114.344 111.01C112.285 109.189 107.768 105.597 94.3212 99.1819L75.3092 105.472L56.1402 99.1829Z" fill="white"/>
<path fill-rule="evenodd" clip-rule="evenodd" d="M70.0303 109.75L72.9373 113.728C74.4403 113.728 75.9443 113.728 77.4473 113.728L80.3543 109.75L75.2473 105.419L70.0303 109.75Z" fill="#E63A45"/>
<path fill-rule="evenodd" clip-rule="evenodd" d="M72.9369 113.728L68.7979 137.331C73.0539 137.755 77.3159 137.763 81.5869 137.331L77.4478 113.728H72.9369Z" fill="#E63A45"/>
<path fill-rule="evenodd" clip-rule="evenodd" d="M63.6191 75.7468C66.7611 77.9888 84.4982 77.8648 87.6402 75.7468C84.9102 87.5398 67.2401 87.9018 63.6191 75.7468Z" fill="#F7C5AA"/>
<path fill-rule="evenodd" clip-rule="evenodd" d="M88.3762 85.5157C83.3752 94.6757 74.6122 98.2928 62.1172 96.4078V76.5107L88.3762 85.5157Z" fill="#F7C5AA"/>
<path fill-rule="evenodd" clip-rule="evenodd" d="M75.246 34.8188C41.19 34.8188 53.4369 75.9699 55.6619 79.2449C58.1149 82.8569 69.744 92.4319 75.246 92.4319C80.748 92.4319 92.377 82.8579 94.83 79.2449C97.055 75.9689 109.302 34.8188 75.246 34.8188Z" fill="#FFDECC"/>
<path fill-rule="evenodd" clip-rule="evenodd" d="M67.0853 65.6918C67.9433 65.6918 68.6423 63.9658 68.6423 61.8508C68.6423 59.7358 67.9423 58.0098 67.0853 58.0098C66.2273 58.0098 65.5283 59.7348 65.5283 61.8508C65.5283 63.9658 66.2273 65.6918 67.0853 65.6918Z" fill="#666666"/>
<path fill-rule="evenodd" clip-rule="evenodd" d="M82.6234 65.6918C83.4814 65.6918 84.1804 63.9658 84.1804 61.8508C84.1804 59.7358 83.4804 58.0098 82.6234 58.0098C81.7654 58.0098 81.0664 59.7348 81.0664 61.8508C81.0664 63.9658 81.7654 65.6918 82.6234 65.6918Z" fill="#666666"/>
<path fill-rule="evenodd" clip-rule="evenodd" d="M72.6611 73.6979C77.6931 72.4789 77.3281 69.0899 77.1461 65.8499C78.7671 70.3939 79.8551 74.4359 72.6611 73.6979Z" fill="#F7C5AA"/>
<path fill-rule="evenodd" clip-rule="evenodd" d="M85.9622 74.9009C80.7392 78.8279 69.8903 78.3299 64.5312 74.9009C69.6623 81.0759 82.7682 81.0169 85.9622 74.9009Z" fill="#D1A575"/>
<path fill-rule="evenodd" clip-rule="evenodd" d="M80.6078 81.3438C77.9948 83.3547 72.5658 83.0998 69.8838 81.3438C72.4518 84.5068 79.0098 84.4757 80.6078 81.3438Z" fill="#F7C5AA"/>
<path fill-rule="evenodd" clip-rule="evenodd" d="M60.4391 45.6907C65.7541 43.2127 68.5351 46.0967 74.5411 46.3777C80.5471 46.6587 84.5001 42.4457 89.9841 45.7757C93.3161 47.7987 94.3601 54.7867 94.4621 58.7007C94.5771 63.1387 95.1261 66.5377 99.0051 65.3957C100.716 64.8917 98.9851 57.4827 99.2501 53.7487C99.5141 50.0157 102.408 45.1687 100.29 40.0137C98.1721 34.8577 93.9361 32.5467 94.9951 34.5027C96.0541 36.4577 91.5541 37.3467 86.2581 33.7917C80.9631 30.2367 73.8141 28.6367 65.8721 28.8137C57.9291 28.9907 58.7241 29.8797 63.7541 30.0577C68.7841 30.2357 65.8711 31.3017 58.7231 31.6577C51.5751 32.0127 49.1921 32.7237 44.9561 34.6797C40.7201 36.6357 41.5141 37.3467 45.7511 35.9237C49.9871 34.5017 51.5311 35.3997 48.1341 36.4577C45.2261 37.3627 41.2551 42.1697 44.4321 40.2137C47.6091 38.2577 48.0451 41.4017 48.9081 43.9077C49.5361 45.7297 50.8241 46.5177 50.8241 50.7847C50.8241 55.0517 50.5881 65.8807 54.2051 64.8557C58.1331 63.7437 55.6691 47.9147 60.4391 45.6907Z" fill="#D4A379"/>
<path fill-rule="evenodd" clip-rule="evenodd" d="M49.243 57.3519C51.03 56.7639 53.304 58.7919 54.322 61.8829C55.34 64.9739 54.716 67.9559 52.929 68.5449C51.142 69.1339 48.867 67.1049 47.85 64.0139C46.832 60.9229 47.456 57.9409 49.243 57.3519Z" fill="#FFDECC"/>
<path fill-rule="evenodd" clip-rule="evenodd" d="M101.495 57.3519C99.7084 56.7639 97.4344 58.7919 96.4164 61.8829C95.3984 64.9739 96.0224 67.9559 97.8094 68.5449C99.5964 69.1339 101.87 67.1049 102.888 64.0139C103.906 60.9229 103.282 57.9409 101.495 57.3519Z" fill="#FFDECC"/>
<path d="M79.3066 53.8917C81.1316 52.7287 85.7756 51.8567 87.4346 53.0197" stroke="#D4A379" stroke-width="1.44" stroke-miterlimit="22.9256" stroke-linecap="round" stroke-linejoin="round"/>
<path d="M71.1866 56.0477C69.3616 54.8847 64.7176 54.0127 63.0586 55.1757" stroke="#D4A379" stroke-width="1.44" stroke-miterlimit="22.9256" stroke-linecap="round" stroke-linejoin="round"/>
<path fill-rule="evenodd" clip-rule="evenodd" d="M62.0495 94.1909L54.8115 99.8239L65.8805 113.958L75.2465 105.529L62.0495 94.1909Z" fill="#CCCCCC"/>
<path fill-rule="evenodd" clip-rule="evenodd" d="M88.4441 94.1909L95.6741 99.8329L84.6121 113.958L75.2461 105.529L88.4441 94.1909Z" fill="#CCCCCC"/>
<path fill-rule="evenodd" clip-rule="evenodd" d="M62.0495 94.1909L54.8115 99.8239L65.8805 111.826L75.2465 105.528L62.0495 94.1909Z" fill="white"/>
<path fill-rule="evenodd" clip-rule="evenodd" d="M88.4441 94.1909L95.6741 99.8329L84.6121 111.826L75.2461 105.528L88.4441 94.1909Z" fill="white"/>
<path fill-rule="evenodd" clip-rule="evenodd" d="M60.4572 34.9158C68.4652 33.3168 78.1892 35.7718 83.0222 40.3978C86.7402 43.9378 83.9093 42.9678 81.6783 42.0818C75.9303 39.8258 68.2082 35.4868 60.4002 36.5718C57.2532 37.0288 53.9652 36.2008 60.4572 34.9158Z" fill="#EBC09B"/>
<path fill-rule="evenodd" clip-rule="evenodd" d="M59.5699 39.0559C67.1769 36.1439 77.1869 36.8859 82.7639 40.6259C86.9969 43.4809 84.0798 43.0239 81.7058 42.5099C75.6718 41.2539 67.3199 38.2839 59.7989 40.7109C56.7669 41.6829 53.3919 41.4259 59.5699 39.0559Z" fill="#EBC09B"/>
</svg>
