<svg width="146" height="146" viewBox="0 0 146 146" fill="none" xmlns="http://www.w3.org/2000/svg">
<path d="M134.006 83.7102C140.158 49.7811 117.639 17.2894 83.7102 11.1381C49.7811 4.98668 17.2894 27.505 11.138 61.4341C4.98667 95.3632 27.505 127.855 61.4341 134.006C95.3632 140.158 127.855 117.639 134.006 83.7102Z" fill="#E63A45"/>
<path fill-rule="evenodd" clip-rule="evenodd" d="M85.7043 73.8476V97.0125C78.4823 103.848 66.6663 103.612 59.4453 97.0125V73.8476C59.4453 61.3396 85.7043 61.3396 85.7043 73.8476Z" fill="#FFDECC"/>
<path fill-rule="evenodd" clip-rule="evenodd" d="M63.1223 92.1096C42.2243 101.272 35.9553 106.157 33.4773 108.349C31.7613 109.868 30.3903 113.249 29.1953 117.482C40.4283 128.338 55.7203 135.019 72.5753 135.019C89.4303 135.019 104.723 128.337 115.955 117.481C114.761 113.248 113.389 109.867 111.673 108.348C109.195 106.156 103.155 101.397 82.2573 92.2346L63.1223 92.1096Z" fill="#FFDECC"/>
<path fill-rule="evenodd" clip-rule="evenodd" d="M42.7653 102.05C37.3373 105.134 34.8363 107.146 33.4773 108.349C31.7613 109.868 30.3903 113.249 29.1953 117.482C40.4283 128.338 55.7203 135.019 72.5753 135.019C89.4303 135.019 104.723 128.337 115.955 117.481C114.761 113.248 113.389 109.867 111.673 108.348C110.303 107.136 107.843 105.14 102.389 102.049C82.5143 109.275 62.6393 109.525 42.7653 102.05Z" fill="white"/>
<path fill-rule="evenodd" clip-rule="evenodd" d="M57.9353 94.4316V133.293C46.9333 130.649 37.0663 125.091 29.1943 117.482C30.3893 113.249 31.7603 109.868 33.4763 108.349C35.7363 106.35 41.1513 102.111 57.9353 94.4316Z" fill="#1B7991"/>
<path fill-rule="evenodd" clip-rule="evenodd" d="M87.8291 133.141V94.7327C104.271 102.279 109.429 106.365 111.672 108.348C113.388 109.867 114.76 113.248 115.954 117.481C108.229 124.948 98.5831 130.44 87.8291 133.141Z" fill="#1B7991"/>
<path fill-rule="evenodd" clip-rule="evenodd" d="M85.7043 82.8527C80.7033 92.0127 71.9403 95.6297 59.4453 93.7447V73.8477L85.7043 82.8527Z" fill="#F7C5AA"/>
<path fill-rule="evenodd" clip-rule="evenodd" d="M72.5741 32.1555C38.5181 32.1555 50.7651 73.3055 52.9901 76.5815C55.4431 80.1935 67.0721 89.7685 72.5741 89.7685C78.0761 89.7685 89.7051 80.1945 92.1581 76.5815C94.3831 73.3055 106.63 32.1555 72.5741 32.1555Z" fill="#FFDECC"/>
<path fill-rule="evenodd" clip-rule="evenodd" d="M64.4135 63.0287C65.2715 63.0287 65.9704 61.3027 65.9704 59.1877C65.9704 57.0727 65.2705 55.3467 64.4135 55.3467C63.5555 55.3467 62.8564 57.0717 62.8564 59.1877C62.8564 61.3037 63.5555 63.0287 64.4135 63.0287Z" fill="#666666"/>
<path fill-rule="evenodd" clip-rule="evenodd" d="M79.9515 63.0287C80.8095 63.0287 81.5085 61.3027 81.5085 59.1877C81.5085 57.0727 80.8085 55.3467 79.9515 55.3467C79.0935 55.3467 78.3945 57.0717 78.3945 59.1877C78.3945 61.3037 79.0935 63.0287 79.9515 63.0287Z" fill="#666666"/>
<path fill-rule="evenodd" clip-rule="evenodd" d="M69.9893 71.0348C75.0213 69.8158 74.6563 66.4268 74.4743 63.1868C76.0953 67.7308 77.1833 71.7728 69.9893 71.0348Z" fill="#F7C5AA"/>
<path fill-rule="evenodd" clip-rule="evenodd" d="M81.6521 72.8635C76.2201 75.0825 68.7991 75.0085 63.4961 72.8635C65.6411 83.7395 78.8851 84.4085 81.6521 72.8635Z" fill="#D1A575"/>
<path fill-rule="evenodd" clip-rule="evenodd" d="M79.2301 73.6704C74.9531 74.8074 69.9391 74.7614 65.7451 73.6174C69.2471 77.9994 75.5361 78.1834 79.2301 73.6704Z" fill="white"/>
<path d="M76.6357 52.3575C78.4607 51.1945 83.1047 50.3225 84.7637 51.4855" stroke="#ED9855" stroke-width="1.44" stroke-miterlimit="22.9256" stroke-linecap="round" stroke-linejoin="round"/>
<path d="M68.5147 52.3575C66.6897 51.1945 62.0457 50.3225 60.3867 51.4855" stroke="#ED9855" stroke-width="1.44" stroke-miterlimit="22.9256" stroke-linecap="round" stroke-linejoin="round"/>
<path fill-rule="evenodd" clip-rule="evenodd" d="M92.0613 61.7208C92.8853 66.2438 97.8103 61.0738 96.8523 53.1218C94.4793 33.4468 84.6683 29.1298 72.4563 29.6788C60.5293 30.2138 50.3363 33.1398 48.2663 53.3278C47.4493 61.2938 52.2883 64.9488 53.2503 61.7718C54.4163 57.9208 53.9873 38.1578 58.0913 37.5338C62.0303 36.9338 66.3223 40.3348 71.4173 40.3348C76.4993 40.3348 81.8803 37.1228 85.8183 37.7228C89.9223 38.3468 91.2423 57.2258 92.0613 61.7208Z" fill="#ED9855"/>
<path fill-rule="evenodd" clip-rule="evenodd" d="M91.3791 39.3645C84.7501 39.8375 78.0911 48.6975 60.4821 50.1045C59.9441 50.2045 74.1191 45.2805 77.2531 39.8645C70.8801 44.7525 60.6381 49.1085 54.4981 49.2375C53.2851 49.2625 53.9551 46.3435 53.9551 43.1245C53.9541 39.1905 66.0071 21.6615 91.3791 39.3645Z" fill="#ED9855"/>
<path fill-rule="evenodd" clip-rule="evenodd" d="M46.5711 54.6886C48.3581 54.0996 50.6321 56.1286 51.6501 59.2196C52.6681 62.3106 52.0441 65.2926 50.2571 65.8816C48.4701 66.4696 46.1961 64.4416 45.1781 61.3506C44.1601 58.2596 44.7841 55.2766 46.5711 54.6886Z" fill="#FFDECC"/>
<path fill-rule="evenodd" clip-rule="evenodd" d="M98.8225 54.6886C97.0355 54.0996 94.7615 56.1286 93.7435 59.2196C92.7255 62.3106 93.3495 65.2926 95.1375 65.8816C96.9245 66.4696 99.1985 64.4416 100.217 61.3506C101.235 58.2596 100.611 55.2766 98.8225 54.6886Z" fill="#FFDECC"/>
<path fill-rule="evenodd" clip-rule="evenodd" d="M52.248 45.6667C62.963 47.4187 75.8231 33.8207 83.2121 33.7047C74.7201 30.3597 59.046 43.3907 52.248 45.6667Z" fill="#FCCAA4"/>
<path fill-rule="evenodd" clip-rule="evenodd" d="M85.705 93.7666L81.668 134.361C85.293 133.832 88.818 132.991 92.213 131.867L96.202 121.703L89.341 117.129L98.338 110.351L90.821 96.1266L90.818 96.1256L85.741 93.7836L85.705 93.7666Z" fill="#82C8D9"/>
<path fill-rule="evenodd" clip-rule="evenodd" d="M59.4455 93.7666L63.4825 134.361C59.8565 133.832 56.3325 132.992 52.9375 131.867L48.9475 121.703L55.8085 117.129L46.8115 110.351L54.3285 96.1266L59.4455 93.7666Z" fill="#82C8D9"/>
</svg>
