<svg width="151" height="151" viewBox="0 0 151 151" fill="none" xmlns="http://www.w3.org/2000/svg">
<path d="M89.5539 135.898C123.104 127.943 143.853 94.2972 135.898 60.7474C127.943 27.1976 94.2971 6.44863 60.7473 14.4033C27.1975 22.3581 6.44857 56.0041 14.4033 89.554C22.358 123.104 56.0041 143.853 89.5539 135.898Z" fill="#288EA7"/>
<path fill-rule="evenodd" clip-rule="evenodd" d="M52.5401 53.6952C60.3001 37.9511 80.4631 36.4222 85.1121 41.7492C91.3371 41.0372 96.4621 46.7351 100.299 55.4881C107.61 72.1672 96.6841 118.07 74.7781 117.947C52.8721 117.824 39.8581 79.4282 52.5401 53.6952Z" fill="#BA8252"/>
<path fill-rule="evenodd" clip-rule="evenodd" d="M72.3623 114.393C61.4713 112.112 54.5823 90.4392 59.3173 80.5452C65.6003 89.2972 72.1723 109.635 72.3623 114.393Z" fill="#916034"/>
<path fill-rule="evenodd" clip-rule="evenodd" d="M78.416 114.393C89.307 112.112 95.62 93.0332 90.884 83.1392C84.601 91.8912 78.606 109.635 78.416 114.393Z" fill="#916034"/>
<path fill-rule="evenodd" clip-rule="evenodd" d="M83.8819 104.654C83.7029 104.908 66.0619 105.162 65.8669 105.413C58.6589 110.288 46.2969 112.881 38.8369 117.587C36.8109 118.865 35.1639 120.379 33.8369 122.051C44.0179 131.046 57.1549 136.771 71.6059 137.581H78.7039C93.1679 136.77 106.315 131.035 116.5 122.027C115.147 120.251 113.483 118.721 111.474 117.587C104.453 113.621 91.8269 110.056 83.8819 104.654Z" fill="#FFDECC"/>
<path fill-rule="evenodd" clip-rule="evenodd" d="M84.4083 84.201V106.868C79.3193 113.556 70.9933 113.325 65.9053 106.868V84.201C65.9053 71.961 84.4083 71.961 84.4083 84.201Z" fill="#FFDECC"/>
<path fill-rule="evenodd" clip-rule="evenodd" d="M84.4083 95.8291C80.8843 104.665 74.7093 106.747 65.9053 104.929V85.7371L84.4083 95.8291Z" fill="#F7C5AA"/>
<path fill-rule="evenodd" clip-rule="evenodd" d="M75.1557 99.8801C69.1317 99.8801 56.4067 90.4092 52.4727 76.8451C48.4997 63.1491 55.9817 43.5042 75.1557 43.5042C94.3297 43.5042 101.812 63.1482 97.8387 76.8451C93.9047 90.4101 81.1797 99.8801 75.1557 99.8801Z" fill="#FFDECC"/>
<path fill-rule="evenodd" clip-rule="evenodd" d="M95.8783 74.9492C95.6513 79.5442 100.635 76.4852 99.6763 68.5332C97.8993 49.9492 86.5723 42.8052 74.6343 42.8052C62.6963 42.8052 52.1683 50.2382 50.5953 68.5412C49.9093 76.5192 53.8243 75.9462 53.8933 72.6202C54.0233 66.3402 56.8183 48.2062 74.6393 48.2062C92.4603 48.2062 96.3183 66.0392 95.8783 74.9492Z" fill="#BA8252"/>
<path fill-rule="evenodd" clip-rule="evenodd" d="M67.4347 73.2842C68.2867 73.2842 68.9827 71.5692 68.9827 69.4662C68.9827 67.3632 68.2877 65.6492 67.4347 65.6492C66.5817 65.6492 65.8867 67.3632 65.8867 69.4662C65.8867 71.5692 66.5817 73.2842 67.4347 73.2842Z" fill="#666666"/>
<path fill-rule="evenodd" clip-rule="evenodd" d="M82.8781 73.2842C83.7301 73.2842 84.4261 71.5692 84.4261 69.4662C84.4261 67.3632 83.7311 65.6492 82.8781 65.6492C82.0261 65.6492 81.3301 67.3642 81.3301 69.4662C81.3301 71.5692 82.0261 73.2842 82.8781 73.2842Z" fill="#666666"/>
<path fill-rule="evenodd" clip-rule="evenodd" d="M74.1055 81.3803C78.7785 80.2483 78.4385 77.1013 78.2695 74.0923C79.7755 78.3123 80.7855 82.0663 74.1055 81.3803Z" fill="#EDC497"/>
<path fill-rule="evenodd" clip-rule="evenodd" d="M83.1091 83.7312C79.2331 86.6452 71.1821 86.2762 67.2051 83.7312C71.0131 88.3132 80.7381 88.2702 83.1091 83.7312Z" fill="#D4A879"/>
<path fill-rule="evenodd" clip-rule="evenodd" d="M79.1357 88.5112C77.1967 90.0042 73.1677 89.8142 71.1777 88.5112C73.0827 90.8592 77.9487 90.8362 79.1357 88.5112Z" fill="#EDC497"/>
<path fill-rule="evenodd" clip-rule="evenodd" d="M67.4347 73.2842C68.2867 73.2842 68.9827 71.5692 68.9827 69.4662C68.9827 67.3632 68.2877 65.6492 67.4347 65.6492C66.5817 65.6492 65.8867 67.3632 65.8867 69.4662C65.8867 71.5692 66.5817 73.2842 67.4347 73.2842Z" fill="#666666"/>
<path fill-rule="evenodd" clip-rule="evenodd" d="M82.8781 73.2842C83.7301 73.2842 84.4261 71.5692 84.4261 69.4662C84.4261 67.3632 83.7311 65.6492 82.8781 65.6492C82.0261 65.6492 81.3301 67.3642 81.3301 69.4662C81.3301 71.5692 82.0261 73.2842 82.8781 73.2842Z" fill="#666666"/>
<path fill-rule="evenodd" clip-rule="evenodd" d="M74.1055 81.3803C78.7785 80.2483 78.4385 77.1013 78.2695 74.0923C79.7755 78.3123 80.7855 82.0663 74.1055 81.3803Z" fill="#EDC497"/>
<path fill-rule="evenodd" clip-rule="evenodd" d="M83.1091 83.7312C79.2331 86.6452 71.1821 86.2762 67.2051 83.7312C71.0131 88.3132 80.7381 88.2702 83.1091 83.7312Z" fill="#D1A575"/>
<path fill-rule="evenodd" clip-rule="evenodd" d="M79.1357 88.5112C77.1967 90.0042 73.1677 89.8142 71.1777 88.5112C73.0827 90.8592 77.9487 90.8362 79.1357 88.5112Z" fill="#EDC497"/>
<path d="M79.2168 64.694C81.0418 63.531 85.6858 62.659 87.3448 63.822" stroke="#D6A375" stroke-width="0.9601" stroke-miterlimit="22.9256" stroke-linecap="round" stroke-linejoin="round"/>
<path d="M71.0958 64.694C69.2708 63.531 64.6268 62.659 62.9678 63.822" stroke="#D6A375" stroke-width="0.9601" stroke-miterlimit="22.9256" stroke-linecap="round" stroke-linejoin="round"/>
<path fill-rule="evenodd" clip-rule="evenodd" d="M47.4062 74.7071C49.2352 38.0251 76.0132 40.8231 84.7882 50.8181C66.8512 44.0461 52.6413 58.9011 47.4062 74.7071Z" fill="#D19E71"/>
<path fill-rule="evenodd" clip-rule="evenodd" d="M48.6879 68.581C50.6259 67.749 53.3629 69.79 54.8019 73.141C56.2409 76.492 55.8369 79.883 53.8989 80.715C51.9609 81.547 49.2239 79.506 47.7849 76.155C46.3459 72.804 46.7499 69.413 48.6879 68.581Z" fill="#FFDECC"/>
<path fill-rule="evenodd" clip-rule="evenodd" d="M54.722 98.086C43.269 48.122 71.779 45.449 84.788 50.819C70.559 53.16 53.611 61.276 54.722 98.086Z" fill="#916034"/>
<path fill-rule="evenodd" clip-rule="evenodd" d="M57.1924 47.107C70.2994 31.674 85.9824 41.144 84.7894 50.818C79.8734 41.613 66.6914 39.532 57.1924 47.107Z" fill="#916034"/>
<path fill-rule="evenodd" clip-rule="evenodd" d="M61.1582 66.5642C72.7762 70.3002 84.8402 60.5562 84.4232 50.7942C79.3642 59.6982 66.2312 66.3752 61.1582 66.5642Z" fill="#D19E71"/>
<path fill-rule="evenodd" clip-rule="evenodd" d="M73.083 72.8421C83.973 71.0921 89.133 58.4421 84.397 50.8501C84.408 59.9851 77.016 70.6311 73.083 72.8421Z" fill="#916034"/>
<path fill-rule="evenodd" clip-rule="evenodd" d="M102.415 69.8441C103.693 48.2841 90.5905 43.1311 84.6445 50.8501C96.7605 50.7181 101.121 62.8671 102.415 69.8441Z" fill="#D19E71"/>
<path fill-rule="evenodd" clip-rule="evenodd" d="M102.157 68.581C100.22 67.749 97.4817 69.79 96.0427 73.141C94.6037 76.492 95.0077 79.883 96.9457 80.715C98.8837 81.547 101.621 79.506 103.06 76.155C104.499 72.804 104.095 69.413 102.157 68.581Z" fill="#FFDECC"/>
<path fill-rule="evenodd" clip-rule="evenodd" d="M93.7567 97.0151C107.377 70.5041 97.3257 49.4631 85.1777 50.8191C93.7957 55.0771 96.9637 83.6101 93.7567 97.0151Z" fill="#916034"/>
<path fill-rule="evenodd" clip-rule="evenodd" d="M95.6094 47.3091C89.2374 39.1371 84.1414 42.3981 84.4254 50.7951C88.1124 43.6081 91.7874 45.0781 95.6094 47.3091Z" fill="#916034"/>
<path fill-rule="evenodd" clip-rule="evenodd" d="M40.2519 116.75C39.7639 117.022 39.2909 117.3 38.8379 117.587C36.8119 118.865 35.1649 120.379 33.8379 122.051C44.0189 131.046 57.1559 136.771 71.6069 137.581H78.7049C93.1689 136.77 106.316 131.035 116.501 122.027C115.148 120.251 113.484 118.721 111.475 117.587C110.978 117.306 110.453 117.028 109.904 116.75C87.8059 125.71 64.6419 126.139 40.2519 116.75Z" fill="#93A9A7"/>
</svg>
