<svg width="164" height="164" viewBox="0 0 164 164" fill="none" xmlns="http://www.w3.org/2000/svg">
<path d="M139.257 105.468C152.453 73.6113 137.325 37.089 105.468 23.8932C73.6113 10.6974 37.0889 25.8251 23.8931 57.6819C10.6973 89.5387 25.825 126.061 57.6818 139.257C89.5386 152.453 126.061 137.325 139.257 105.468Z" fill="#3DA4A3"/>
<path fill-rule="evenodd" clip-rule="evenodd" d="M94.6984 82.8351V106C87.4774 112.835 75.6605 112.599 68.4395 106V82.8351C68.4405 70.3271 94.6984 70.3271 94.6984 82.8351Z" fill="#FFDECC"/>
<path fill-rule="evenodd" clip-rule="evenodd" d="M72.1165 101.097C51.2185 110.259 44.9495 115.144 42.4715 117.336C40.7555 118.855 39.3845 122.236 38.1895 126.469C49.4225 137.325 64.7145 144.006 81.5695 144.006C98.4245 144.006 113.717 137.324 124.949 126.468C123.755 122.235 122.383 118.854 120.667 117.335C118.189 115.143 112.149 110.384 91.2515 101.222L72.1165 101.097Z" fill="#FFDECC"/>
<path fill-rule="evenodd" clip-rule="evenodd" d="M59.4775 106.963C48.4375 112.443 44.3565 115.669 42.4715 117.336C40.7555 118.855 39.3845 122.236 38.1895 126.469C49.4225 137.325 64.7145 144.006 81.5695 144.006C98.4245 144.006 113.717 137.324 124.949 126.468C123.755 122.235 122.383 118.854 120.667 117.335C118.769 115.657 114.784 112.473 103.642 106.962H59.4775V106.963Z" fill="white"/>
<path fill-rule="evenodd" clip-rule="evenodd" d="M69.9424 82.071C73.0844 84.313 90.8214 84.189 93.9634 82.071C91.2334 93.864 73.5634 94.226 69.9424 82.071Z" fill="#F7C5AA"/>
<path fill-rule="evenodd" clip-rule="evenodd" d="M94.6984 91.8402C89.6974 101 80.9345 104.617 68.4395 102.732V82.8352L94.6984 91.8402Z" fill="#F7C5AA"/>
<path fill-rule="evenodd" clip-rule="evenodd" d="M81.5692 41.1431C47.5132 41.1431 59.7602 82.2941 61.9852 85.5691C64.4382 89.1811 76.0672 98.7561 81.5692 98.7561C87.0712 98.7561 98.7002 89.1821 101.153 85.5691C103.378 82.2931 115.625 41.1431 81.5692 41.1431Z" fill="#FFDECC"/>
<path fill-rule="evenodd" clip-rule="evenodd" d="M73.4076 72.0162C74.2656 72.0162 74.9646 70.2902 74.9646 68.1752C74.9646 66.0602 74.2646 64.3342 73.4076 64.3342C72.5496 64.3342 71.8506 66.0592 71.8506 68.1752C71.8496 70.2902 72.5496 72.0162 73.4076 72.0162Z" fill="#666666"/>
<path fill-rule="evenodd" clip-rule="evenodd" d="M88.9457 72.0162C89.8037 72.0162 90.5027 70.2902 90.5027 68.1752C90.5027 66.0602 89.8027 64.3342 88.9457 64.3342C88.0877 64.3342 87.3887 66.0592 87.3887 68.1752C87.3887 70.2902 88.0877 72.0162 88.9457 72.0162Z" fill="#666666"/>
<path fill-rule="evenodd" clip-rule="evenodd" d="M78.9844 80.0221C84.0164 78.8031 83.6514 75.4141 83.4694 72.1741C85.0904 76.7181 86.1784 80.7601 78.9844 80.0221Z" fill="#F7C5AA"/>
<path fill-rule="evenodd" clip-rule="evenodd" d="M91.4464 78.2632C87.1344 86.1042 77.3314 87.2812 72.2344 84.9282C77.0304 89.2452 87.4494 89.4992 91.4464 78.2632Z" fill="#D4A879"/>
<path fill-rule="evenodd" clip-rule="evenodd" d="M88.1939 85.3042C85.8309 89.6002 80.4609 90.2452 77.6689 88.9562C80.2969 91.3222 86.0049 91.4602 88.1939 85.3042Z" fill="#EDC497"/>
<path d="M85.6289 62.3722C87.4539 61.2092 92.0979 60.3372 93.7569 61.5002" stroke="#D6A375" stroke-width="1.44" stroke-miterlimit="22.9256" stroke-linecap="round" stroke-linejoin="round"/>
<path d="M77.5089 62.3722C75.6839 61.2092 71.0399 60.3372 69.3809 61.5002" stroke="#D6A375" stroke-width="1.44" stroke-miterlimit="22.9256" stroke-linecap="round" stroke-linejoin="round"/>
<path fill-rule="evenodd" clip-rule="evenodd" d="M101.056 71.4522C101.88 75.9752 106.805 70.8052 105.846 62.8532C103.473 43.1782 92.8414 39.4072 80.9034 39.4072C68.9654 39.4072 59.3314 42.8702 57.2604 63.0592C56.4434 71.0262 61.2824 74.6802 62.2444 71.5032C63.4114 67.6522 62.9814 47.8892 67.0854 47.2652C71.0244 46.6652 75.5234 49.4432 80.6194 49.4432C85.7004 49.4432 90.8744 46.8552 94.8124 47.4542C98.9164 48.0782 100.237 66.9572 101.056 71.4522Z" fill="#ED9855"/>
<path fill-rule="evenodd" clip-rule="evenodd" d="M55.5659 63.6762C57.3529 63.0882 59.6269 65.1162 60.6449 68.2072C61.6629 71.2982 61.0389 74.2802 59.2519 74.8692C57.4649 75.4582 55.1899 73.4292 54.1729 70.3382C53.1539 67.2472 53.7779 64.2652 55.5659 63.6762Z" fill="#FFDECC"/>
<path fill-rule="evenodd" clip-rule="evenodd" d="M107.817 63.6762C106.03 63.0882 103.756 65.1162 102.738 68.2072C101.72 71.2982 102.344 74.2802 104.132 74.8692C105.919 75.4582 108.193 73.4292 109.211 70.3382C110.229 67.2472 109.604 64.2652 107.817 63.6762Z" fill="#FFDECC"/>
<path fill-rule="evenodd" clip-rule="evenodd" d="M50.3477 49.2012C57.6787 51.9712 59.4357 42.1412 65.9577 38.8542C71.9937 35.8112 86.0247 37.7412 83.2137 48.5302C81.6077 41.3312 72.7737 43.0152 67.3777 44.1342C61.9807 45.2512 58.5347 57.0152 50.3477 49.2012Z" fill="#FCCAA4"/>
<path fill-rule="evenodd" clip-rule="evenodd" d="M51.0273 56.6773C58.8333 57.3713 58.3243 48.2773 63.9133 43.5753C68.6793 39.5663 82.9283 37.2043 83.2373 48.8163C79.9053 42.2783 72.0173 44.8463 67.4933 47.5413C62.9683 50.2363 61.0163 61.9993 51.0273 56.6773Z" fill="#FAB27B"/>
<path fill-rule="evenodd" clip-rule="evenodd" d="M83.1825 49.6732C81.2025 46.5042 74.3835 43.9492 70.1785 49.1512C64.7415 55.8782 67.6395 68.1922 55.3945 68.9242C62.5345 65.3652 60.0185 51.9512 64.7455 45.6252C69.3985 39.3982 82.9735 39.1252 83.1825 49.6732Z" fill="#FCCAA4"/>
<path fill-rule="evenodd" clip-rule="evenodd" d="M113.528 49.0611C105.251 60.0291 95.576 44.4021 83.626 49.4981C91.857 29.9381 104.699 54.9751 113.528 49.0611Z" fill="#FCCAA4"/>
<path fill-rule="evenodd" clip-rule="evenodd" d="M112.989 55.4982C102.559 64.4422 97.4946 45.0022 83.6846 49.5302C97.1296 36.1192 103.099 59.3862 112.989 55.4982Z" fill="#FAB27B"/>
<path fill-rule="evenodd" clip-rule="evenodd" d="M111.14 61.5413C99.0694 68.1043 99.0424 49.1092 83.7334 49.5722C99.6484 43.2512 100.655 63.2743 111.14 61.5413Z" fill="#FCCAA4"/>
<path fill-rule="evenodd" clip-rule="evenodd" d="M107.293 67.9151C93.741 70.1831 97.954 52.9191 83.792 49.6581C102.233 45.1261 96.816 66.1331 107.293 67.9151Z" fill="#FAB27B"/>
<path fill-rule="evenodd" clip-rule="evenodd" d="M63.6562 69.6961C72.1593 68.6961 66.0453 47.1221 83.0633 49.6151C80.0223 43.1641 71.8053 44.8341 69.0423 50.1261C65.5763 56.7641 67.6393 67.1461 63.6562 69.6961Z" fill="#FAB27B"/>
<path fill-rule="evenodd" clip-rule="evenodd" d="M63.5599 102.473C55.5079 102.473 53.8309 103.409 53.4959 108.399C53.1599 113.389 54.5019 125.242 59.5349 131.791C64.5669 138.341 61.8829 130.855 62.5539 125.553C63.2249 120.25 64.2309 133.038 66.5799 127.113C68.9269 121.187 65.9079 117.132 63.5599 102.473Z" fill="#B57FB1"/>
<path fill-rule="evenodd" clip-rule="evenodd" d="M103.626 104.813C107.291 104.813 111.818 107.017 108.584 111.828C105.35 116.638 103.625 127.662 103.41 132.271C103.194 136.881 100.823 140.087 100.823 136.28C100.823 132.472 97.8036 123.653 96.9416 127.461C96.0796 131.269 92.8456 135.077 93.2766 127.862C93.7086 120.647 95.4336 100.804 103.626 104.813Z" fill="#B57FB1"/>
<path fill-rule="evenodd" clip-rule="evenodd" d="M103.103 105.763C96.1274 112.789 74.8394 122.224 60.8874 105.469C59.3494 101.114 59.7814 98.7851 63.8504 99.8661C63.5594 95.8121 66.2634 94.5941 68.4394 95.3961C74.9194 103.399 93.1664 100.465 94.6984 94.7991C97.7894 94.9851 99.1994 97.1871 97.2494 100.335C104.515 97.0921 106.009 102.25 103.103 105.763Z" fill="#B57FB1"/>
<path fill-rule="evenodd" clip-rule="evenodd" d="M100.341 114.038V111.543C101.713 109.262 103.233 107.586 104.32 107.259C103.599 107.818 101.888 110.643 100.341 114.038ZM100.341 109.401C101.839 108.422 103.179 106.928 103.672 105.075C103.052 106.155 101.747 107.236 100.341 108.184V109.401ZM100.341 108.184V109.401C99.0388 110.253 97.6168 110.714 96.5278 110.683V110.438C97.5468 109.886 98.9908 109.096 100.341 108.184ZM100.341 111.544V114.038C98.7608 117.508 97.3528 121.577 97.3528 124.432C96.2198 120.705 98.0808 115.303 100.341 111.544ZM96.5278 100.85V100.764C96.6618 100.668 96.7928 100.573 96.9178 100.478C96.7928 100.601 96.6618 100.725 96.5278 100.85ZM62.1118 122.022C61.8248 121.554 61.5528 121.012 61.2958 120.418V121.247C61.5538 121.527 61.8258 121.787 62.1118 122.022ZM96.5278 100.763V100.849C90.6488 106.315 77.1938 111.821 65.4248 100.837C77.4298 109.889 90.8168 104.855 96.5278 100.763ZM96.5278 110.438L96.1378 110.649C96.2618 110.668 96.3928 110.679 96.5278 110.683V110.438ZM61.2958 107.473V105.996C62.3478 107.285 63.8528 108.599 64.7858 109.293C63.5358 109.223 62.1488 108.562 61.2958 107.473ZM61.2958 120.418C59.1518 115.468 58.0678 106.813 58.7908 105.602C56.5448 107.201 57.2418 116.847 61.2958 121.246V120.418ZM61.2958 105.996V107.473C60.7408 106.764 60.4108 105.875 60.4918 104.849C60.6998 105.217 60.9768 105.605 61.2958 105.996Z" fill="#804B7C"/>
</svg>
