<svg width="146" height="146" viewBox="0 0 146 146" fill="none" xmlns="http://www.w3.org/2000/svg">
<path d="M134.006 83.7102C140.158 49.7811 117.639 17.2894 83.7102 11.1381C49.7811 4.98668 17.2894 27.505 11.138 61.4341C4.98667 95.3632 27.505 127.855 61.4341 134.006C95.3632 140.158 127.855 117.639 134.006 83.7102Z" fill="#ED9855"/>
<path fill-rule="evenodd" clip-rule="evenodd" d="M76.5293 103.903C90.9833 97.9708 87.0523 80.9408 93.6083 74.8098C100.164 68.6778 95.0883 56.7008 89.3013 49.0928C89.9673 57.2348 86.9743 64.6778 78.9293 77.4918C70.8853 90.3058 79.7393 100.995 76.5293 103.903Z" fill="#E63A45"/>
<path fill-rule="evenodd" clip-rule="evenodd" d="M69.0067 103.903C54.5527 97.9708 58.4837 80.9408 51.9277 74.8098C45.3717 68.6778 50.4487 56.7008 56.2347 49.0928C55.5687 57.2348 58.5617 64.6778 66.6067 77.4918C74.6507 90.3058 65.7957 100.995 69.0067 103.903Z" fill="#E63A45"/>
<path fill-rule="evenodd" clip-rule="evenodd" d="M56.9347 96.2318C39.0547 84.0278 53.0817 70.0048 50.3277 61.4608C47.5737 52.9178 57.8277 44.9118 66.5807 41.0718C62.0447 47.8658 61.0477 55.8258 61.8567 70.9348C62.6677 86.0418 55.5407 92.1308 56.9347 96.2318Z" fill="#E63A45"/>
<path fill-rule="evenodd" clip-rule="evenodd" d="M45.2559 86.493C33.8369 70.558 48.6159 60.994 47.8439 52.051C47.0729 43.108 58.1289 35.972 67.5189 34.188C61.5769 39.794 59.5529 48.958 56.9599 63.864C54.3679 78.77 43.0739 80.327 45.2559 86.493Z" fill="#E63A45"/>
<path fill-rule="evenodd" clip-rule="evenodd" d="M88.7378 96.7518C105.998 85.5368 93.3268 71.6738 96.1328 63.1478C98.9388 54.6218 90.4578 52.2858 83.1748 49.4568C87.6688 56.2788 85.4488 57.4468 84.5458 72.5498C83.6418 87.6518 91.4348 91.7318 88.7378 96.7518Z" fill="#E63A45"/>
<path fill-rule="evenodd" clip-rule="evenodd" d="M99.376 85.9959C112.61 70.9369 96.506 60.2449 97.924 51.3819C99.342 42.5179 90.597 41.5579 82.957 39.9209C88.477 45.9429 86.47 47.4489 87.976 62.5029C89.481 77.5589 100.129 81.7309 99.376 85.9959Z" fill="#E63A45"/>
<path fill-rule="evenodd" clip-rule="evenodd" d="M81.2931 102.095C81.1141 102.349 63.473 102.603 63.278 102.854C56.07 107.729 43.708 110.322 36.248 115.028C34.222 116.306 32.575 117.82 31.248 119.492C41.429 128.488 54.566 134.212 69.017 135.023H76.1151C90.5791 134.212 103.726 128.477 113.911 119.469C112.558 117.693 110.893 116.163 108.885 115.029C101.864 111.062 89.2381 107.497 81.2931 102.095Z" fill="#FFDECC"/>
<path fill-rule="evenodd" clip-rule="evenodd" d="M81.8185 81.6419V104.309C76.7295 110.997 68.4034 110.766 63.3154 104.309V81.6419C63.3154 69.4019 81.8185 69.4019 81.8185 81.6419Z" fill="#FFDECC"/>
<path fill-rule="evenodd" clip-rule="evenodd" d="M81.8185 93.2697C78.2945 102.106 72.1194 104.188 63.3154 102.369V83.1768L81.8185 93.2697Z" fill="#F7C5AA"/>
<path fill-rule="evenodd" clip-rule="evenodd" d="M72.5665 97.3208C66.5425 97.3208 53.8175 87.8498 49.8835 74.2858C45.9115 60.5898 53.3925 40.9448 72.5665 40.9448C91.7415 40.9448 99.2225 60.5888 95.2495 74.2858C91.3155 87.8508 78.5905 97.3208 72.5665 97.3208Z" fill="#FFDECC"/>
<path fill-rule="evenodd" clip-rule="evenodd" d="M64.8459 70.7249C65.6979 70.7249 66.3938 69.0098 66.3938 66.9068C66.3938 64.8038 65.6989 63.0898 64.8459 63.0898C63.9939 63.0898 63.2979 64.8048 63.2979 66.9068C63.2979 69.0098 63.9929 70.7249 64.8459 70.7249Z" fill="#666666"/>
<path fill-rule="evenodd" clip-rule="evenodd" d="M80.2892 70.7249C81.1412 70.7249 81.8372 69.0098 81.8372 66.9068C81.8372 64.8038 81.1422 63.0898 80.2892 63.0898C79.4372 63.0898 78.7412 64.8048 78.7412 66.9068C78.7412 69.0098 79.4372 70.7249 80.2892 70.7249Z" fill="#666666"/>
<path fill-rule="evenodd" clip-rule="evenodd" d="M71.5166 78.821C76.1896 77.689 75.8496 74.542 75.6806 71.533C77.1866 75.753 78.1966 79.507 71.5166 78.821Z" fill="#EDC497"/>
<path fill-rule="evenodd" clip-rule="evenodd" d="M80.5202 81.1719C76.6442 84.0859 68.5932 83.7169 64.6162 81.1719C68.4242 85.7539 78.1492 85.7109 80.5202 81.1719Z" fill="#D1A575"/>
<path fill-rule="evenodd" clip-rule="evenodd" d="M76.5469 85.9529C74.6079 87.4459 70.5789 87.2559 68.5889 85.9529C70.4939 88.2999 75.3599 88.2769 76.5469 85.9529Z" fill="#EDC497"/>
<path d="M76.6279 59.9469C78.4529 58.7839 83.0969 57.9119 84.7559 59.0749" stroke="#D6A375" stroke-width="0.9601" stroke-miterlimit="22.9256" stroke-linecap="round" stroke-linejoin="round"/>
<path d="M68.5069 59.9469C66.6819 58.7839 62.0379 57.9119 60.3789 59.0749" stroke="#D6A375" stroke-width="0.9601" stroke-miterlimit="22.9256" stroke-linecap="round" stroke-linejoin="round"/>
<path fill-rule="evenodd" clip-rule="evenodd" d="M93.4154 72.4548C93.1884 77.0498 98.1724 73.9908 97.2144 66.0388C95.4374 47.4548 84.1104 40.3108 72.1724 40.3108C60.2344 40.3108 49.7064 47.7428 48.1324 66.0458C47.4464 74.0238 51.3614 73.4508 51.4304 70.1248C51.5604 63.8448 54.3554 45.7108 72.1764 45.7108C89.9974 45.7118 93.8554 63.5448 93.4154 72.4548Z" fill="#E63A45"/>
<path fill-rule="evenodd" clip-rule="evenodd" d="M46.0997 66.0219C48.0377 65.1899 50.7747 67.2309 52.2137 70.5819C53.6527 73.9319 53.2487 77.3239 51.3107 78.1559C49.3727 78.9879 46.6357 76.9469 45.1967 73.5959C43.7567 70.2449 44.1607 66.8539 46.0997 66.0219Z" fill="#FFDECC"/>
<path fill-rule="evenodd" clip-rule="evenodd" d="M99.5678 66.0219C97.6298 65.1899 94.8928 67.2309 93.4538 70.5819C92.0148 73.9319 92.4188 77.3239 94.3568 78.1559C96.2948 78.9879 99.0318 76.9469 100.471 73.5959C101.91 70.2449 101.506 66.8539 99.5678 66.0219Z" fill="#FFDECC"/>
<path fill-rule="evenodd" clip-rule="evenodd" d="M51.1235 73.9608C54.0075 44.7678 75.9355 63.3598 86.9845 42.2178C81.5615 30.4398 67.6085 32.6888 61.2665 36.8358C52.6655 42.4578 47.8765 58.5538 51.1235 73.9608Z" fill="#E63A45"/>
<path fill-rule="evenodd" clip-rule="evenodd" d="M92.5997 74.1379C96.6787 59.5289 81.3747 57.9229 77.9707 45.9409C80.3537 44.5259 82.8647 38.1159 85.9597 40.4069C90.9277 44.0849 100.111 63.6689 92.5997 74.1379Z" fill="#E63A45"/>
<path fill-rule="evenodd" clip-rule="evenodd" d="M52.3398 58.352C56.2738 47.307 80.6328 47.156 82.7518 42.163C77.5838 42.073 53.2708 42.302 52.3398 58.352Z" fill="#F0606A"/>
<path fill-rule="evenodd" clip-rule="evenodd" d="M84.0017 43.5239C83.3457 48.1149 96.3007 55.3309 95.3167 63.6939C99.0927 50.5079 85.3657 44.6259 84.0017 43.5239Z" fill="#F0606A"/>
<path fill-rule="evenodd" clip-rule="evenodd" d="M31.248 119.492C41.429 128.488 54.566 134.212 69.017 135.023H76.1151C90.5791 134.212 103.726 128.477 113.911 119.469C110.548 115.056 105.133 113.044 100.167 111.028C86.0361 119.777 56.722 120.428 43.494 111.456C38.621 113.454 34.406 115.514 31.248 119.492Z" fill="#288EA7"/>
<path d="M42.052 113.913C41.344 113.314 40.523 114.393 41.19 114.957L41.317 115.066L41.447 115.175L41.578 115.282L41.711 115.388L41.847 115.493L41.986 115.598L42.128 115.702L42.27 115.804L42.415 115.905L42.563 116.006L42.712 116.105L42.865 116.204L43.019 116.302L43.174 116.399L43.333 116.495L43.491 116.589L43.517 116.604C44.365 117.058 44.902 115.803 44.171 115.411L44.145 115.396L43.996 115.307L43.85 115.219L43.705 115.129L43.563 115.04L43.425 114.949L43.287 114.858L43.152 114.767L43.02 114.673L42.889 114.58L42.762 114.486L42.637 114.392L42.515 114.298L42.394 114.202L42.277 114.107L42.162 114.011L42.052 113.913ZM102.21 114.655C102.961 114.057 102.061 113.019 101.424 113.526L101.274 113.634L101.122 113.742L100.969 113.847L100.813 113.952L100.654 114.057L100.494 114.159L100.332 114.262L100.166 114.364L99.999 114.466L99.832 114.565L99.699 114.642C99 114.984 99.478 116.283 100.369 115.846L100.511 115.763L100.691 115.656L100.867 115.549L101.041 115.441L101.215 115.332L101.386 115.221L101.555 115.11L101.721 114.998L101.887 114.884L102.05 114.769L102.21 114.655ZM96.664 117.635C97.394 117.401 97.112 116.046 96.158 116.351L96.043 116.397L95.835 116.48L95.625 116.562L95.413 116.644L95.2 116.724L94.985 116.804L94.769 116.883L94.552 116.96L94.332 117.037L94.111 117.113L93.888 117.189L93.679 117.258C92.853 117.522 93.251 118.844 94.107 118.57L94.322 118.498L94.551 118.421L94.778 118.343L95.005 118.264L95.231 118.183L95.455 118.102L95.676 118.02L95.896 117.938L96.116 117.854L96.333 117.769L96.549 117.683L96.664 117.635ZM90.189 119.685C91.144 119.379 90.593 118.109 89.863 118.343L89.644 118.396L89.397 118.455L89.147 118.513L88.898 118.57L88.647 118.626L88.395 118.682L88.14 118.736L87.887 118.79L87.631 118.843L87.374 118.895L87.272 118.916C86.471 119.036 86.596 120.41 87.544 120.269L87.653 120.247L87.914 120.193L88.174 120.14L88.434 120.085L88.692 120.029L88.949 119.973L89.206 119.915L89.461 119.856L89.716 119.796L89.969 119.736L90.189 119.685ZM83.544 120.952C84.432 120.819 84.202 119.458 83.342 119.587L83.153 119.614L82.882 119.652L82.611 119.688L82.339 119.724L82.065 119.758L81.792 119.793L81.519 119.826L81.246 119.859L80.97 119.89L80.7 119.921C79.764 120.061 80.051 121.412 80.863 121.291L81.136 121.26L81.414 121.228L81.693 121.195L81.972 121.161L82.249 121.126L82.526 121.09L82.803 121.054L83.078 121.016L83.354 120.978L83.544 120.952ZM76.821 121.642C77.714 121.508 77.618 120.285 76.721 120.266L76.51 120.28L76.228 120.297L75.946 120.314L75.665 120.329L75.382 120.343L75.101 120.357L74.817 120.369L74.535 120.382L74.252 120.393L74.058 120.4C73.262 120.383 73.146 121.757 74.123 121.778L74.322 121.77L74.609 121.759L74.895 121.746L75.181 121.733L75.468 121.719L75.754 121.704L76.04 121.688L76.325 121.671L76.61 121.654L76.821 121.642ZM70.068 121.839C70.929 121.857 70.965 120.48 70.057 120.461H70.008L69.725 120.458L69.443 120.456L69.162 120.452L68.88 120.447L68.598 120.442L68.318 120.435L68.037 120.428L67.756 120.42L67.477 120.412L67.39 120.409C66.481 120.39 66.502 121.768 67.364 121.786L67.453 121.789L67.738 121.798L68.022 121.806L68.306 121.813L68.591 121.82L68.876 121.825L69.161 121.83L69.447 121.834L69.733 121.837L70.018 121.839H70.068ZM63.307 121.558C64.286 121.578 64.182 120.202 63.39 120.185L63.324 120.18L63.052 120.158L62.781 120.134L62.508 120.111L62.238 120.087L61.97 120.062L61.7 120.036L61.432 120.009L61.164 119.981L60.897 119.954L60.734 119.935C59.985 119.792 59.608 121.113 60.607 121.304L60.776 121.323L61.047 121.353L61.319 121.381L61.593 121.408L61.865 121.435L62.139 121.461L62.414 121.485L62.688 121.508L62.965 121.532L63.242 121.554L63.307 121.558ZM56.571 120.748C57.403 120.908 57.679 119.564 56.767 119.388L56.747 119.385L56.496 119.342L56.246 119.299L55.997 119.255L55.749 119.21L55.503 119.165L55.258 119.118L55.014 119.072L54.771 119.024L54.529 118.975L54.289 118.926L54.145 118.896C53.242 118.723 53.052 120.083 53.892 120.245L54.04 120.277L54.287 120.327L54.534 120.376L54.783 120.425L55.031 120.473L55.281 120.52L55.533 120.566L55.786 120.612L56.039 120.656L56.294 120.7L56.551 120.743L56.571 120.748ZM49.915 119.245C50.662 119.517 51.202 118.261 50.273 117.923L50.201 117.902L49.988 117.838L49.777 117.773L49.568 117.707L49.359 117.64L49.152 117.573L48.948 117.505L48.746 117.437L48.546 117.367L48.346 117.296L48.148 117.225L47.952 117.154L47.759 117.082L47.758 117.081C46.886 116.764 46.499 118.078 47.3 118.369L47.31 118.372L47.512 118.449L47.716 118.523L47.921 118.597L48.128 118.67L48.338 118.743L48.549 118.814L48.76 118.884L48.973 118.954L49.188 119.023L49.405 119.091L49.625 119.158L49.844 119.224L49.915 119.245Z" fill="white"/>
<path d="M62.3525 102.854C64.2965 108.649 76.5975 112.225 82.7815 102.826" stroke="#93A9A7" stroke-width="1.9199" stroke-miterlimit="22.9256" stroke-linecap="round" stroke-linejoin="round"/>
<path fill-rule="evenodd" clip-rule="evenodd" d="M72.5673 113.539C73.5993 113.539 74.4403 112.698 74.4403 111.666C74.4403 110.634 73.5993 109.793 72.5673 109.793C71.5353 109.793 70.6943 110.634 70.6943 111.666C70.6943 112.698 71.5353 113.539 72.5673 113.539Z" fill="#E63A45"/>
</svg>
