<svg width="143" height="143" viewBox="0 0 143 143" fill="none" xmlns="http://www.w3.org/2000/svg">
<path d="M133.095 81.194C138.487 47.1374 115.251 15.1572 81.1941 9.76442C47.1374 4.37163 15.1573 27.6083 9.76452 61.665C4.37173 95.7217 27.6084 127.702 61.6651 133.095C95.7217 138.487 127.702 115.251 133.095 81.194Z" fill="#E63A45"/>
<path fill-rule="evenodd" clip-rule="evenodd" d="M93.4607 49.6168C86.8167 36.1368 65.8387 34.8288 61.8597 39.3898C44.8027 37.4398 33.1257 88.6038 69.1757 90.7208C90.9387 91.9998 104.319 71.6478 93.4607 49.6168Z" fill="#D19E71"/>
<path fill-rule="evenodd" clip-rule="evenodd" d="M80.1661 100.954C79.9871 101.208 62.3461 101.462 62.1511 101.713C54.9431 106.588 42.5811 109.181 35.1211 113.887C33.0951 115.165 31.4481 116.679 30.1211 118.351C40.3021 127.346 53.4391 133.071 67.8901 133.881H74.9881C89.4521 133.07 102.599 127.335 112.784 118.327C111.431 116.551 109.767 115.021 107.758 113.887C100.736 109.921 88.1101 106.356 80.1661 100.954Z" fill="#FFDECC"/>
<path fill-rule="evenodd" clip-rule="evenodd" d="M57.9701 104.075C60.2441 111.774 65.3391 121.524 73.0511 126.757C80.4081 121.765 85.3831 112.661 87.8001 105.149C94.8061 108.405 102.722 111.043 107.757 113.887C109.766 115.021 111.43 116.552 112.783 118.327C102.598 127.335 89.4511 133.07 74.9871 133.881H67.8891C53.4381 133.071 40.3011 127.346 30.1201 118.351C31.4471 116.679 33.0941 115.165 35.1201 113.887C41.2821 110.001 50.7871 107.555 57.9701 104.075Z" fill="white"/>
<path fill-rule="evenodd" clip-rule="evenodd" d="M80.6924 80.5008V103.168C75.6034 109.856 67.2775 109.625 62.1895 103.168V80.5008C62.1885 68.2608 80.6924 68.2608 80.6924 80.5008Z" fill="#FFDECC"/>
<path fill-rule="evenodd" clip-rule="evenodd" d="M80.6924 92.1298C77.1684 100.966 70.9935 103.048 62.1895 101.23V82.0378L80.6924 92.1298Z" fill="#F7C5AA"/>
<path fill-rule="evenodd" clip-rule="evenodd" d="M71.4408 96.1809C65.4168 96.1809 52.6918 86.7099 48.7578 73.1459C44.7848 59.4499 52.2668 39.8049 71.4408 39.8049C90.6158 39.8049 98.0968 59.4489 94.1238 73.1459C90.1888 86.7099 77.4638 96.1809 71.4408 96.1809Z" fill="#FFDECC"/>
<path fill-rule="evenodd" clip-rule="evenodd" d="M63.7189 69.5837C64.5709 69.5837 65.2669 67.8687 65.2669 65.7657C65.2669 63.6627 64.5719 61.9487 63.7189 61.9487C62.8669 61.9487 62.1709 63.6637 62.1709 65.7657C62.1709 67.8677 62.8669 69.5837 63.7189 69.5837Z" fill="#666666"/>
<path fill-rule="evenodd" clip-rule="evenodd" d="M79.1623 69.5837C80.0143 69.5837 80.7102 67.8687 80.7102 65.7657C80.7102 63.6627 80.0153 61.9487 79.1623 61.9487C78.3103 61.9487 77.6143 63.6637 77.6143 65.7657C77.6143 67.8677 78.3103 69.5837 79.1623 69.5837Z" fill="#666666"/>
<path fill-rule="evenodd" clip-rule="evenodd" d="M70.3896 77.6808C75.0626 76.5488 74.7226 73.4018 74.5536 70.3928C76.0596 74.6118 77.0706 78.3658 70.3896 77.6808Z" fill="#EDC497"/>
<path fill-rule="evenodd" clip-rule="evenodd" d="M79.3932 80.0308C75.5172 82.9448 67.4663 82.5758 63.4893 80.0308C67.2973 84.6138 77.0222 84.5698 79.3932 80.0308Z" fill="#D1A575"/>
<path fill-rule="evenodd" clip-rule="evenodd" d="M75.42 84.8118C73.481 86.3048 69.4519 86.1148 67.4609 84.8118C69.3669 87.1588 74.234 87.1368 75.42 84.8118Z" fill="#EDC497"/>
<path d="M75.501 58.5228C77.326 57.3598 81.97 56.4878 83.629 57.6508" stroke="#D6A375" stroke-width="0.9601" stroke-miterlimit="22.9256" stroke-linecap="round" stroke-linejoin="round"/>
<path d="M67.381 58.5228C65.556 57.3598 60.9119 56.4878 59.2529 57.6508" stroke="#D6A375" stroke-width="0.9601" stroke-miterlimit="22.9256" stroke-linecap="round" stroke-linejoin="round"/>
<path fill-rule="evenodd" clip-rule="evenodd" d="M92.1615 71.209C91.9345 75.804 96.9185 72.7449 95.9595 64.7929C94.1825 46.2089 82.8555 39.0649 70.9175 39.0649C58.9795 39.0649 48.4515 46.497 46.8785 64.801C46.1925 72.779 50.1075 72.2059 50.1765 68.8799C50.3065 62.5999 53.1015 44.4659 70.9225 44.4659C88.7445 44.4649 92.6015 62.299 92.1615 71.209Z" fill="#FFF3E0"/>
<path fill-rule="evenodd" clip-rule="evenodd" d="M96.7932 70.6879C77.9542 66.2329 60.1242 54.3779 56.1582 43.3579C68.4462 33.6129 100.461 36.9759 96.7932 70.6879Z" fill="#D19E71"/>
<path fill-rule="evenodd" clip-rule="evenodd" d="M45.7929 70.6878C54.8399 66.2328 54.3309 49.0008 67.2589 44.7428C57.7529 33.7368 42.9969 51.3518 45.7929 70.6878Z" fill="#D19E71"/>
<path fill-rule="evenodd" clip-rule="evenodd" d="M44.973 64.8808C46.911 64.0488 49.648 66.0898 51.087 69.4408C52.526 72.7918 52.122 76.1828 50.184 77.0148C48.246 77.8468 45.509 75.8058 44.07 72.4548C42.631 69.1048 43.035 65.7138 44.973 64.8808Z" fill="#FFDECC"/>
<path fill-rule="evenodd" clip-rule="evenodd" d="M98.4419 64.8808C96.5039 64.0488 93.7668 66.0898 92.3278 69.4408C90.8888 72.7918 91.2928 76.1828 93.2308 77.0148C95.1688 77.8468 97.9058 75.8058 99.3448 72.4548C100.784 69.1048 100.379 65.7138 98.4419 64.8808Z" fill="#FFDECC"/>
<path fill-rule="evenodd" clip-rule="evenodd" d="M94.7748 60.8848C85.0528 66.0968 63.0658 53.2218 61.6748 42.2568C67.2058 49.5278 90.3058 61.5118 94.7748 60.8848Z" fill="#EBC09B"/>
<path fill-rule="evenodd" clip-rule="evenodd" d="M92.3931 107.166C98.0671 109.546 103.802 111.653 107.758 113.887C109.767 115.021 111.431 116.552 112.784 118.327C102.599 127.335 89.4521 133.07 74.9881 133.881H67.8901C53.4391 133.071 40.3021 127.346 30.1211 118.351C31.4481 116.679 33.0951 115.165 35.1211 113.887C40.0031 110.807 47.8151 108.297 54.0791 105.795C57.9471 116.241 64.0971 125.835 73.0521 131.911C81.6851 126.052 88.1731 116.488 92.3931 107.166Z" fill="#B57FB1"/>
<path fill-rule="evenodd" clip-rule="evenodd" d="M76.1162 94.9118C76.6962 105.361 85.1622 119.687 99.7412 120.394C95.1232 117.884 95.9982 112.429 96.3802 109.936C97.3592 103.544 98.0342 86.4578 88.8672 83.7698C85.0442 89.0838 80.1692 93.0158 76.1162 94.9118Z" fill="#D19E71"/>
</svg>
